PathFileType	3	(X/Y/Z)	D:\minhoCalibration\240510\subject1_KPNP\preferred\preferred02.trc
DataRate	CameraRate	NumFrames	NumMarkers	Units	OrigDataRate	OrigDataStartFrame	OrigNumFrames
200.0	200.0	30	10	mm	200.0	223	236	
Frame#	Time	Left_Ankle_Outer1			Left_Ankle_Inner1			Left_Knee_Outer1			Left_Knee_Inner1			Left_Wrist1			Right_Wrist1			Right_Knee_Inner1			Right_Knee_Outer1			Right_Ankle_Inner1			Right_Ankle_Outer1			
		X1	Y1	Z1	X2	Y2	Z2	X3	Y3	Z3	X4	Y4	Z4	X5	Y5	Z5	X6	Y6	Z6	X7	Y7	Z7	X8	Y8	Z8	X9	Y9	Z9	X10	Y10	Z10	
223	1.105	-450.88449	145.80214	-578.97992	-494.55722	160.88921	-542.27863	-311.50049	575.09644	-503.16	-408.57611	555.70288	-452.59531	-337.56409	1025.364	-701.44672	-641.78516	1110.1246	-513.65363	-546.27008	778.78442	-177.70894	-665.2677	835.76862	-170.31134	-742.96649	686.77216	-548.90955	-825.03754	733.6778	-539.83417
224	1.11	-451.92447	146.74272	-578.55975	-494.73813	162.10065	-540.60724	-309.58594	575.54016	-507.65329	-403.8244	556.33826	-452.71121	-341.03394	1025.3735	-708.85864	-635.63464	1115.3193	-508.00247	-523.71149	795.45715	-167.22795	-640.10925	856.17877	-153.47144	-747.52832	704.17841	-522.28937	-827.51959	753.47778	-508.45749
225	1.115	-453.47235	147.09612	-577.40173	-495.03909	163.00957	-539.07306	-308.45993	575.6347	-511.72601	-399.80023	556.53595	-452.95438	-345.06485	1024.7456	-715.98322	-629.96161	1121.5797	-502.15799	-500.51297	811.95258	-158.87369	-613.44904	876.66064	-139.20445	-752.05786	720.4433	-493.89349	-829.46826	772.42963	-476.30078
226	1.12	-454.85529	147.81174	-577.02509	-495.70673	163.76909	-537.44592	-307.78452	575.48419	-515.32715	-396.64484	556.98456	-452.93411	-350.23471	1023.8364	-722.15027	-624.08832	1127.2159	-496.63602	-477.81516	828.14612	-151.7121	-585.97211	898.15649	-126.49458	-756.20715	735.7796	-464.88208	-830.81049	790.73438	-443.07321
227	1.125	-456.98511	147.8857	-575.97406	-497.16147	163.82556	-535.31744	-307.80789	575.12634	-518.19043	-394.68835	556.42444	-453.79575	-356.08716	1022.5408	-727.6347	-617.08105	1132.2887	-490.81308	-454.87164	844.15784	-146.97159	-557.34045	919.16522	-116.97134	-760.56561	750.05817	-434.72205	-831.1839	808.01923	-408.94376
228	1.13	-459.17441	148.16377	-575.43567	-498.93878	164.49002	-533.79919	-308.40897	574.5058	-520.3808	-393.7337	556.0058	-453.94705	-362.03873	1021.0285	-732.69666	-611.43396	1137.8947	-486.73117	-432.80524	859.01404	-143.24403	-528.95239	939.30292	-110.05693	-763.1925	764.24609	-403.95102	-830.78735	825.08215	-373.38004
229	1.135	-461.95834	148.07404	-574.59631	-500.97394	163.8812	-532.11804	-309.50284	573.7616	-521.84338	-393.45297	555.73376	-454.20624	-368.14105	1019.2462	-737.09552	-605.69312	1143.4323	-482.26736	-411.24252	873.45013	-141.30634	-500.11801	958.78625	-106.007	-766.16064	775.79803	-367.87103	-829.1485	841.66406	-336.38553
230	1.14	-464.9476	148.0211	-573.83398	-503.5336	163.84163	-530.74286	-310.81543	573.06927	-522.8067	-392.99844	555.94849	-454.51212	-374.41818	1017.1238	-740.91388	-600.3288	1149.0737	-477.79626	-390.46512	887.59845	-140.75272	-472.05963	977.38568	-104.35413	-768.69263	788.52588	-332.49377	-826.13727	857.83838	-297.76944
231	1.145	-468.44324	147.75882	-573.03143	-506.61237	163.64105	-529.40515	-312.90335	572.20215	-522.88086	-395.10681	555.49866	-452.9985	-380.63278	1014.7148	-744.04431	-594.62256	1154.498	-475.07877	-371.1926	900.91022	-140.97517	-445.0188	995.211	-104.99784	-768.57416	801.11145	-292.51151	-821.43848	873.67389	-257.31784
232	1.15	-472.14505	147.51544	-572.11383	-509.9104	163.23747	-528.22015	-315.10373	571.42542	-522.53418	-397.30023	555.13708	-452.37677	-386.84467	1012.1724	-746.47308	-589.16858	1159.9702	-472.14325	-353.05777	913.7887	-141.91873	-419.91711	1011.9426	-107.07513	-766.51892	813.62305	-250.14323	-814.74054	889.2558	-215.17125
233	1.155	-475.87103	147.1351	-571.31158	-513.21759	162.57872	-527.2713	-317.69925	570.61243	-521.48315	-400.263	555.06567	-449.85037	-393.04138	1009.4098	-748.09814	-584.00562	1165.3291	-469.6442	-336.09265	926.27454	-143.51176	-396.66159	1027.4675	-111.17493	-761.57715	826.4986	-205.27287	-805.38116	904.68774	-171.3347
234	1.16	-479.72446	146.74062	-570.52838	-516.94855	161.90268	-526.34229	-320.71152	569.92212	-519.80786	-402.39285	553.74542	-451.34818	-398.88229	1006.6986	-749.07635	-579.00073	1170.3164	-467.5943	-320.53214	938.32141	-145.59256	-375.22903	1041.2157	-116.92188	-753.18365	839.17151	-158.02165	-793.13342	920.20477	-126.17258
235	1.165	-483.65582	146.20444	-569.56659	-520.66327	161.17764	-525.49884	-323.86093	569.17993	-517.72168	-405.38123	554.77173	-448.30643	-404.44772	1003.9759	-749.40613	-573.78662	1173.682	-469.26205	-306.36588	949.89844	-148.08342	-356.40759	1053.8698	-123.40279	-740.96301	852.04138	-108.77802	-777.35175	936.1001	-79.707741
236	1.17	-487.50052	145.66063	-568.61377	-524.33081	160.37767	-524.55804	-327.08707	568.38251	-515.23456	-410.8558	553.44696	-445.64783	-409.42844	1001.2853	-749.40283	-569.77734	1179.0439	-466.5163	-293.74451	960.87134	-150.83627	-340.27625	1064.9449	-130.40131	-724.58478	865.59393	-58.307346	-758.125	951.93365	-32.98259
237	1.175	-491.12991	145.08458	-567.69208	-528.01923	159.53831	-523.7074	-330.07153	567.69287	-512.61121	-414.45239	552.93286	-444.20798	-413.9223	998.67328	-748.51031	-566.25201	1182.7582	-466.37155	-284.53867	970.53259	-153.02017	-327.17944	1074.8619	-137.2494	-703.83136	879.84241	-8.1200924	-735.23309	967.9549	12.979
238	1.18	-494.71902	144.5957	-566.68024	-531.4942	158.71539	-522.82294	-332.90604	567.10614	-509.82846	-418.13849	552.3667	-443.15759	-417.47601	996.25085	-747.25006	-563.41425	1185.9647	-466.75131	-275.22229	980.10748	-156.07994	-317.39413	1083.496	-143.50845	-678.25403	894.80188	41.915688	-708.29126	984.18225	58.77623
239	1.185	-497.98434	144.08786	-565.62604	-534.69556	157.89757	-521.80341	-335.98911	566.25055	-506.70724	-422.89017	551.78687	-440.41946	-420.18686	993.92401	-745.65039	-561.0127	1188.4349	-468.03357	-269.22769	988.2915	-158.41705	-310.28937	1091.4364	-149.19928	-650.63507	911.64557	88.868027	-677.38635	1000.8715	103.69
240	1.19	-501.26553	143.29251	-564.2887	-537.72717	157.12935	-520.90265	-338.58102	565.51245	-503.67062	-426.47894	551.32355	-439.10626	-422.15338	991.85101	-743.6084	-559.30621	1190.5212	-469.56473	-265.81073	995.64868	-160.26482	-305.98975	1098.2441	-153.9769	-615.90692	929.005	134.7518	-642.6806	1018.2539	147.16525
241	1.195	-504.12512	142.77365	-563.42535	-540.65594	156.39517	-519.74463	-340.90161	564.64227	-500.78052	-430.03799	550.78741	-437.53754	-423.44028	990.13562	-741.65778	-558.38983	1192.2701	-471.0592	-264.96286	1002.3118	-161.35538	-304.24316	1104.0308	-157.7289	-574.48383	947.63605	177.99341	-603.66663	1035.4268	188.28101
242	1.2	-506.57434	142.3443	-562.88715	-543.21222	155.69827	-518.96027	-342.50586	563.95715	-498.2912	-433.43454	550.33521	-435.61017	-424.07999	988.7915	-739.6825	-558.29767	1193.6503	-472.18213	-266.57382	1008.4057	-161.61153	-304.96036	1108.9097	-159.87654	-530.94659	964.69641	216.65802	-560.40991	1052.7798	226.3112
243	1.205	-508.8371	141.67914	-562.23547	-545.59967	154.78722	-518.34033	-344.92603	562.90308	-495.62256	-436.00516	549.58624	-434.23059	-424.23111	987.64673	-737.73444	-559.01501	1194.567	-472.69864	-270.50565	1014.0134	-160.84077	-307.94815	1112.5483	-159.85153	-488.35556	985.0625	247.26141	-513.64081	1070.4873	259.54764
244	1.21	-511.22433	140.77243	-561.30225	-547.58502	153.85736	-518.065	-346.41675	562.12207	-493.67496	-438.12274	548.8714	-432.74573	-423.82025	986.79767	-735.76733	-560.27594	1194.9825	-472.62512	-276.13416	1018.6324	-158.88045	-313.14264	1114.4454	-157.87131	-432.8457	998.65344	277.08395	-463.03815	1087.1809	287.32291
245	1.215	-512.91895	140.22893	-561.16589	-549.58423	153.23737	-517.55096	-347.76013	561.24451	-492.03159	-439.54068	547.9679	-431.51169	-422.99649	986.12744	-733.57349	-561.90424	1195.0063	-472.07523	-283.71759	1021.6856	-155.10056	-321.41516	1116.0444	-154.29297	-389.9006	1016.3842	291.5535	-410.60086	1102.8716	306.91208
246	1.22	-514.69226	139.41287	-560.88574	-551.26764	152.17511	-517.43842	-348.95651	560.23969	-490.72772	-440.70645	546.96082	-430.27527	-421.83057	985.72571	-731.06897	-563.60358	1194.1949	-472.07782	-290.01181	1024.6798	-151.1601	-332.34271	1117.8505	-150.02731	-334.03668	1027.3395	305.24225	-357.48645	1116.3441	318.26239
247	1.225	-516.33246	138.60742	-560.73999	-553.07373	151.52834	-516.87372	-349.78461	559.10199	-489.72223	-441.34949	546.00732	-429.10608	-420.25378	985.58734	-728.01611	-565.82861	1193.3151	-470.3623	-296.82562	1026.3201	-146.3483	-343.89517	1119.7991	-144.47458	-316.53085	1039.1208	304.39703	-330.58392	1131.2267	315.16858
248	1.23	-518.39819	137.6201	-560.26746	-554.64178	150.59163	-516.82581	-350.00528	557.94147	-488.94992	-441.73233	544.48926	-428.30356	-418.42642	985.73993	-724.27679	-568.10944	1192.3038	-468.02371	-301.03198	1025.6677	-142.28435	-353.51181	1124.0349	-137.90379	-322.24976	1047.1613	308.68042	-322.39325	1142.0621	311.12772
249	1.235	-519.87744	137.07306	-560.57709	-556.18909	149.78268	-516.57446	-350.19058	556.59143	-488.11325	-441.8812	543.34998	-426.7009	-416.27744	985.98578	-720.02209	-570.05853	1191.4916	-465.6575	-300.1929	1023.8935	-139.75912	-358.15408	1130.7003	-133.25975	-333.53314	1057.0392	312.64813	-321.07138	1152.3617	311.31354
250	1.24	-521.35541	136.50725	-560.53479	-557.534	149.32848	-516.24908	-350.49911	555.05072	-487.03445	-441.33163	541.87549	-425.1774	-413.92319	986.17773	-715.10126	-572.1145	1191.3179	-462.40625	-293.92847	1025.28	-136.90163	-352.30731	1135.0715	-130.29124	-337.51318	1062.9237	314.71637	-323.48364	1159.3167	311.94778
251	1.245	-522.35822	136.0666	-560.19379	-558.16901	148.82913	-516.24158	-350.35251	553.81506	-485.767	-440.68472	540.26947	-423.13461	-411.4679	986.25739	-709.73737	-574.18744	1192.0205	-457.84628	-289.30484	1028.7817	-133.44846	-341.86502	1136.2405	-129.49084	-335.77118	1059.1512	313.52762	-335.11334	1157.1179	314.48666
252	1.25	-522.54535	135.90685	-560.05194	-558.29535	148.57932	-516.07605	-350.28531	552.82483	-484.00623	-439.56671	538.94171	-420.59235	-409.16327	986.15582	-704.26117	-576.22052	1192.7308	-454.81018	-289.67361	1031.801	-131.26495	-332.04959	1134.8629	-130.11377	-337.02615	1055.38	311.41339	-349.02008	1150.1891	318.54135
